<svg width="30" height="30" viewBox="0 0 30 30" fill="none" xmlns="http://www.w3.org/2000/svg">
<path d="M27 15C27 8.37259 21.6274 3.00001 15 3.00001C8.37259 3.00001 3 8.37259 3 15C3 21.6274 8.37259 27 15 27C21.6274 27 27 21.6274 27 15Z" fill="#7DA9FD"/>
<path d="M26.9889 15.4053L20.6282 9.04466H20.3284L19.8945 8.61083C19.8818 8.59807 19.8626 8.58531 19.8499 8.57255C19.8371 8.55979 19.8244 8.54703 19.8052 8.53427C19.7861 8.52151 19.7669 8.51513 19.7478 8.50237C19.735 8.49599 19.7159 8.48323 19.7031 8.47685C19.6776 8.46409 19.6521 8.45771 19.6266 8.45133C19.6138 8.44495 19.6011 8.44495 19.5819 8.43857C19.5436 8.43219 19.499 8.42581 19.4607 8.42581C19.1226 8.42581 18.8419 8.70015 18.8419 9.04466L18.408 8.61083C18.3953 8.59807 18.3825 8.59169 18.3761 8.58531C18.357 8.56617 18.3379 8.55341 18.3187 8.54065C18.306 8.53427 18.2932 8.52789 18.2741 8.51513C18.2549 8.50237 18.2358 8.48961 18.2103 8.48323C18.1911 8.47685 18.172 8.47047 18.1528 8.46409C18.1337 8.45771 18.1146 8.45133 18.0954 8.44495C18.0635 8.43857 18.0253 8.43857 17.987 8.43219C17.9806 8.43219 17.9742 8.43219 17.9678 8.43219C17.9296 8.43219 17.8913 8.43857 17.853 8.44495C17.8466 8.44495 17.8339 8.45133 17.8275 8.45133C17.8147 8.45133 17.802 8.45771 17.7828 8.45771C17.6106 8.50875 17.4638 8.63635 17.3936 8.8086C17.3617 8.88516 17.3426 8.96172 17.3426 9.05103L16.9088 8.61721C16.9088 8.61721 16.9088 8.61721 16.9024 8.61083C16.896 8.60445 16.896 8.60445 16.8896 8.59807C16.8641 8.57255 16.8386 8.55341 16.8131 8.53427C16.7174 8.47047 16.5962 8.43219 16.475 8.43219C16.4367 8.43219 16.3984 8.43857 16.3601 8.44495C16.3537 8.44495 16.341 8.45133 16.3346 8.45133C16.3218 8.45133 16.3091 8.45771 16.2899 8.45771C16.0347 8.53427 15.8497 8.77033 15.8497 9.04466L15.4223 8.61721C15.3138 8.50237 15.1543 8.43219 14.9821 8.43219C14.9438 8.43219 14.9055 8.43857 14.8672 8.44495C14.8609 8.44495 14.8481 8.45133 14.8417 8.45133C14.829 8.45133 14.8162 8.45771 14.8034 8.45771C14.5482 8.53427 14.3632 8.77033 14.3632 9.04466L13.9422 8.61721C13.8273 8.50237 13.6742 8.42581 13.4956 8.42581C13.4573 8.42581 13.419 8.43219 13.3807 8.43857C13.3744 8.43857 13.368 8.44495 13.3552 8.44495C13.3425 8.44495 13.3297 8.45133 13.3106 8.45133C13.0554 8.52789 12.8704 8.76394 12.8704 9.03828L12.4429 8.61083C12.3281 8.49599 12.175 8.41943 11.9963 8.41943C11.958 8.41943 11.9198 8.42581 11.8815 8.43219C11.8751 8.43219 11.8623 8.43857 11.856 8.43857C11.8432 8.43857 11.8304 8.44495 11.8113 8.44495C11.5561 8.52151 11.3711 8.75756 11.3711 9.0319H9.33594V20.892L9.36784 20.9239L15.4159 26.9656C21.7255 26.7487 26.772 21.6895 26.9889 15.4053Z" fill="#3280F5"/>
<path d="M20.6279 11.2456H10.8477V20.9366H20.6279V11.2456Z" fill="#E6E5E5"/>
<path d="M20.6279 9.04468H10.8477V11.2457H20.6279V9.04468Z" fill="#EA6552"/>
<path d="M10.8537 11.2456H9.36719V20.9366H10.8537V11.2456Z" fill="#CCCBCA"/>
<path d="M10.8537 9.04468H9.36719V11.2457H10.8537V9.04468Z" fill="#E24F3B"/>
<path d="M20.6284 11.2456V19.1055H12.4431C11.5627 19.1055 10.8545 18.391 10.8545 17.517V11.252H20.6284V11.2456Z" fill="white"/>
<path d="M14.031 17.5107C14.031 18.3912 13.3164 19.0993 12.4424 19.0993H20.6277C21.5081 19.0993 22.2163 18.3848 22.2163 17.5107H14.031Z" fill="#CCCBCA"/>
<path d="M19.4548 9.65736V9.37027C19.6398 9.37027 19.7865 9.22354 19.7865 9.03852C19.7865 8.85351 19.6398 8.70677 19.4548 8.70677C19.2698 8.70677 19.123 8.85351 19.123 9.03852H18.8359C18.8359 8.70039 19.1103 8.41968 19.4548 8.41968C19.7929 8.41968 20.0736 8.69401 20.0736 9.03852C20.0736 9.38303 19.7993 9.65736 19.4548 9.65736Z" fill="#343B43"/>
<path d="M17.9685 9.65736V9.37027C18.1535 9.37027 18.3002 9.22354 18.3002 9.03852C18.3002 8.85351 18.1535 8.70677 17.9685 8.70677C17.7834 8.70677 17.6367 8.85351 17.6367 9.03852H17.3496C17.3496 8.70039 17.6239 8.41968 17.9685 8.41968C18.3066 8.41968 18.5873 8.69401 18.5873 9.03852C18.5873 9.38303 18.313 9.65736 17.9685 9.65736Z" fill="#343B43"/>
<path d="M16.4821 9.65736V9.37027C16.6671 9.37027 16.8139 9.22354 16.8139 9.03852C16.8139 8.85351 16.6671 8.70677 16.4821 8.70677C16.2971 8.70677 16.1504 8.85351 16.1504 9.03852H15.8633C15.8633 8.70039 16.1376 8.41968 16.4821 8.41968C16.8203 8.41968 17.101 8.69401 17.101 9.03852C17.101 9.38303 16.8266 9.65736 16.4821 9.65736Z" fill="#343B43"/>
<path d="M14.9958 9.65736V9.37027C15.1808 9.37027 15.3275 9.22354 15.3275 9.03852C15.3275 8.85351 15.1808 8.70677 14.9958 8.70677C14.8108 8.70677 14.664 8.85351 14.664 9.03852H14.377C14.377 8.70039 14.6513 8.41968 14.9958 8.41968C15.3403 8.41968 15.6146 8.69401 15.6146 9.03852C15.6146 9.38303 15.3339 9.65736 14.9958 9.65736Z" fill="#343B43"/>
<path d="M13.5085 9.65736V9.37027C13.6935 9.37027 13.8402 9.22354 13.8402 9.03852C13.8402 8.85351 13.6935 8.70677 13.5085 8.70677C13.3235 8.70677 13.1767 8.85351 13.1767 9.03852H12.8896C12.8896 8.70039 13.164 8.41968 13.5085 8.41968C13.853 8.41968 14.1273 8.69401 14.1273 9.03852C14.121 9.38303 13.8466 9.65736 13.5085 9.65736Z" fill="#343B43"/>
<path d="M12.0163 9.65736V9.37027C12.2013 9.37027 12.3481 9.22354 12.3481 9.03852C12.3481 8.85351 12.2013 8.70677 12.0163 8.70677C11.8313 8.70677 11.6846 8.85351 11.6846 9.03852H11.3975C11.3975 8.70039 11.6718 8.41968 12.0163 8.41968C12.3544 8.41968 12.6351 8.69401 12.6351 9.03852C12.6351 9.38303 12.3608 9.65736 12.0163 9.65736Z" fill="#343B43"/>
<path d="M15.2257 12.7705H12.0166V15.9796H15.2257V12.7705Z" fill="#EA6552"/>
<path d="M16.3995 13.9442H15.2256V12.7703H16.3995V13.9442ZM15.3851 13.791H16.2527V12.9234H15.3851V13.791Z" fill="#343B43"/>
<path d="M17.42 13.9442H16.2461V12.7703H17.42V13.9442ZM16.3992 13.791H17.2669V12.9234H16.3992V13.791Z" fill="#343B43"/>
<path d="M18.4415 13.9442H17.2676V12.7703H18.4415V13.9442ZM17.4207 13.791H18.2884V12.9234H17.4207V13.791Z" fill="#343B43"/>
<path d="M19.462 13.9442H18.2881V12.7703H19.462V13.9442ZM18.4412 13.791H19.3089V12.9234H18.4412V13.791Z" fill="#343B43"/>
<path d="M16.3995 14.9649H15.2256V13.791H16.3995V14.9649ZM15.3851 14.8118H16.2527V13.9441H15.3851V14.8118Z" fill="#343B43"/>
<path d="M17.42 14.9649H16.2461V13.791H17.42V14.9649ZM16.3992 14.8118H17.2669V13.9441H16.3992V14.8118Z" fill="#343B43"/>
<path d="M18.4415 14.9649H17.2676V13.791H18.4415V14.9649ZM17.4207 14.8118H18.2884V13.9441H17.4207V14.8118Z" fill="#343B43"/>
<path d="M19.462 14.9649H18.2881V13.791H19.462V14.9649ZM18.4412 14.8118H19.3089V13.9441H18.4412V14.8118Z" fill="#343B43"/>
<path d="M16.3995 15.9857H15.2256V14.8118H16.3995V15.9857ZM15.3851 15.8325H16.2527V14.9649H15.3851V15.8325Z" fill="#343B43"/>
<path d="M17.42 15.9857H16.2461V14.8118H17.42V15.9857ZM16.3992 15.8325H17.2669V14.9649H16.3992V15.8325Z" fill="#343B43"/>
<path d="M18.4415 15.9857H17.2676V14.8118H18.4415V15.9857ZM17.4207 15.8325H18.2884V14.9649H17.4207V15.8325Z" fill="#343B43"/>
<path d="M19.462 15.9857H18.2881V14.8118H19.462V15.9857ZM18.4412 15.8325H19.3089V14.9649H18.4412V15.8325Z" fill="#343B43"/>
</svg>
