<svg width="30" height="30" viewBox="0 0 30 30" fill="none" xmlns="http://www.w3.org/2000/svg">
<path d="M27 15C27 8.37258 21.6274 3 15 3C8.37258 3 3 8.37258 3 15C3 21.6274 8.37258 27 15 27C21.6274 27 27 21.6274 27 15Z" fill="#FD8369"/>
<path d="M26.9484 16.038L21.4426 10.5322C21.3533 10.4429 21.2321 10.3982 21.1173 10.3982H20.5112L20.2496 10.1366H18.6036V10.3982H18.2591L16.9895 9.12861C16.8109 8.94998 16.5684 8.8479 16.3133 8.8479H13.6784C13.4232 8.8479 13.1808 8.94998 13.0021 9.12861C12.8235 9.30725 12.7214 9.54968 12.7214 9.80487V10.3982H11.6496L11.388 10.1366H10.1184H9.74204V10.3982H8.87438C8.75317 10.3982 8.63833 10.4429 8.54901 10.5322C8.4597 10.6215 8.41504 10.7427 8.41504 10.8575V19.1386C8.41504 19.2598 8.4597 19.3746 8.54901 19.4639L16.0325 26.9475C21.8318 26.4562 26.4508 21.8372 26.9484 16.038Z" fill="#EA6552"/>
<path d="M21.5771 19.1386C21.5771 19.2599 21.5324 19.3747 21.4431 19.464C21.3538 19.5533 21.2326 19.598 21.1177 19.598H8.88122C8.76001 19.598 8.64517 19.5533 8.55585 19.464C8.46653 19.3747 8.42188 19.2535 8.42188 19.1386V12.3633H21.5834V19.1386H21.5771Z" fill="#343B43"/>
<path d="M21.5771 12.3632C21.5771 13.0395 21.3219 13.7094 20.8052 14.2261C20.2884 14.7429 19.6185 14.9981 18.9423 14.9981H11.044C10.3678 14.9981 9.6979 14.7429 9.18114 14.2261C8.67075 13.7094 8.40918 13.0395 8.40918 12.3632V10.8512C8.40918 10.73 8.45384 10.6151 8.54316 10.5258C8.63247 10.4365 8.75369 10.3918 8.86853 10.3918H21.105C21.2262 10.3918 21.3411 10.4365 21.4304 10.5258C21.5197 10.6151 21.5644 10.7364 21.5644 10.8512V12.3632H21.5771Z" fill="#495057"/>
<path d="M17.2646 10.3918H16.6713V9.79853C16.6713 9.70283 16.633 9.61351 16.5629 9.54333C16.4927 9.47316 16.4034 9.43488 16.3077 9.43488H13.6728C13.5771 9.43488 13.4814 9.47316 13.4176 9.54333C13.3474 9.61351 13.3091 9.70283 13.3091 9.79853V10.3918H12.7158V9.79853C12.7158 9.54333 12.8179 9.3009 12.9965 9.12227C13.1752 8.94363 13.4176 8.84155 13.6728 8.84155H16.3077C16.5629 8.84155 16.7989 8.94363 16.9839 9.12227C17.1626 9.3009 17.2646 9.54333 17.2646 9.79853V10.3918Z" fill="#343B43"/>
<path d="M11.394 10.1301H9.74805V10.3917H11.394V10.1301Z" fill="#343B43"/>
<path d="M20.2436 10.1301H18.5977V10.3917H20.2436V10.1301Z" fill="#343B43"/>
<path d="M15.7207 14.1113H14.2725V15.8913H15.7207V14.1113Z" fill="white"/>
<path d="M15.7207 10.3918H14.2725V14.1113H15.7207V10.3918Z" fill="#343B43"/>
<path d="M15.7207 15.8848H14.2725V19.6042H15.7207V15.8848Z" fill="#495057"/>
</svg>
