<svg width="30" height="30" viewBox="0 0 30 30" fill="none" xmlns="http://www.w3.org/2000/svg">
<path d="M26.9975 14.9988C26.9975 8.37207 21.6255 3.00004 14.9988 3.00004C8.37203 3.00004 3 8.37207 3 14.9988C3 21.6255 8.37203 26.9976 14.9988 26.9976C21.6255 26.9976 26.9975 21.6255 26.9975 14.9988Z" fill="#FECE66"/>
<path d="M27 14.9996C27 14.5211 26.9682 14.0491 26.9171 13.5834L19.3963 9.7688L15.3584 13.8067L21.1824 25.2889C24.6653 23.1902 27 19.3692 27 14.9996Z" fill="#FBB73C"/>
<path d="M14.7555 20.1602L9.25684 14.6615L14.7555 9.16919L15.2084 9.61572L10.1627 14.6615L15.2084 19.7073L14.7555 20.1602Z" fill="#343B43"/>
<path d="M10.7061 14.6617C10.7061 15.2166 10.2596 15.6632 9.70463 15.6632C9.14965 15.6632 8.70312 15.2166 8.70312 14.6617C8.70312 14.1131 9.14965 13.6602 9.70463 13.6602C10.2596 13.6665 10.7061 14.1131 10.7061 14.6617Z" fill="#EA6552"/>
<path d="M10.1133 14.6614C10.1133 14.8847 9.93471 15.0633 9.71144 15.0633C9.48818 15.0633 9.30957 14.8847 9.30957 14.6614C9.30957 14.4381 9.48818 14.2595 9.71144 14.2595C9.93471 14.2659 10.1133 14.4445 10.1133 14.6614Z" fill="white"/>
<path d="M18.1347 12.55C17.7137 12.971 17.0376 12.971 16.6165 12.55C16.1955 12.129 16.1955 11.4528 16.6165 11.0318C17.0376 10.6108 17.7137 10.6108 18.1347 11.0318C18.5494 11.4465 18.5494 12.129 18.1347 12.55Z" fill="white"/>
<path d="M15.3548 9.76898C14.2385 10.8853 14.2385 12.6906 15.3548 13.8069L19.3927 9.76898C18.2764 8.65904 16.4711 8.65904 15.3548 9.76898Z" fill="#EA6552"/>
<path d="M15.9668 8.40388L16.6047 9.04177L14.6272 11.0193L13.9766 10.3686C13.4471 9.82001 13.4471 8.94609 13.9893 8.40388C14.5379 7.85528 15.4246 7.85528 15.9668 8.40388Z" fill="#E24F3B"/>
<path d="M17.9464 19.784L17.232 19.0696L17.0215 19.2801L17.7359 19.9945L17.9464 19.784Z" fill="#343B43"/>
<path d="M15.004 18.6167C13.1286 18.6167 11.6104 20.1349 11.6104 22.0103H18.404C18.3976 20.1349 16.8794 18.6167 15.004 18.6167Z" fill="#EA6552"/>
</svg>
