<svg width="30" height="30" viewBox="0 0 30 30" fill="none" xmlns="http://www.w3.org/2000/svg">
<path d="M26.9993 14.9996C26.9993 8.37241 21.6269 2.99999 14.9996 2.99999C8.37242 2.99999 3 8.37241 3 14.9996C3 21.6268 8.37242 26.9993 14.9996 26.9993C21.6269 26.9993 26.9993 21.6268 26.9993 14.9996Z" fill="#8FDEF6"/>
<path d="M27.0006 15.0018C27.0006 14.8743 26.9942 14.753 26.9942 14.6255L22.1905 9.82173L22.1714 9.80259C22.1076 9.74517 22.0246 9.71328 21.9481 9.71328H19.2368C19.1539 9.71328 19.0646 9.74518 19.0008 9.80897C18.937 9.87276 18.9051 9.96207 18.9051 10.045C18.9051 9.96207 18.8732 9.87276 18.8094 9.80897C18.7456 9.74518 18.6563 9.71328 18.5733 9.71328H15.8621C15.7791 9.71328 15.6898 9.74518 15.626 9.80897C15.5559 9.87276 15.524 9.96207 15.524 10.045V10.8424C15.524 10.8105 15.5112 10.7786 15.4984 10.7467C15.4666 10.6638 15.3964 10.6 15.3198 10.5617L12.8255 9.49C12.7489 9.4581 12.6532 9.45172 12.5703 9.48362C12.4873 9.51551 12.4235 9.57931 12.3853 9.66224L8.36622 18.9762C8.33432 19.0528 8.32794 19.1485 8.35984 19.2314C8.37898 19.2761 8.40449 19.308 8.43001 19.3399L16.0279 26.9378C22.1777 26.4274 27.0006 21.2792 27.0006 15.0018Z" fill="#70C9E9"/>
<path d="M18.8975 10.0515C18.8975 9.96853 18.9294 9.87921 18.9931 9.81542C19.0569 9.75162 19.1463 9.71973 19.2292 9.71973H21.9405C22.0234 9.71973 22.1127 9.75162 22.1765 9.81542C22.2403 9.87921 22.2722 9.96853 22.2722 10.0515V20.2012C22.2722 20.2841 22.2403 20.3734 22.1765 20.4372C22.1127 20.501 22.0234 20.5329 21.9405 20.5329H19.2292C19.1463 20.5329 19.0569 20.501 18.9931 20.4372C18.9294 20.3734 18.8975 20.2841 18.8975 20.2012V10.0515Z" fill="#343B43"/>
<path d="M19.6055 18.7022C19.6055 19.2444 20.0457 19.6846 20.5879 19.6846C21.1302 19.6846 21.5703 19.2444 21.5703 18.7022C21.5703 18.1599 21.1302 17.7197 20.5879 17.7197C20.0457 17.7261 19.6055 18.1663 19.6055 18.7022Z" fill="white"/>
<path d="M19.8477 18.7024C19.8477 19.1107 20.1794 19.436 20.5813 19.436C20.9896 19.436 21.3149 19.1043 21.3149 18.7024C21.3149 18.2941 20.9832 17.9688 20.5813 17.9688C20.1794 17.9688 19.8477 18.3005 19.8477 18.7024Z" fill="#1E262E"/>
<path d="M21.7045 10.2876H19.4717V16.8776H21.7045V10.2876Z" fill="white"/>
<path d="M21.3282 10.6641H19.8418V12.1505H21.3282V10.6641Z" fill="#CCCBCA"/>
<path d="M21.3282 15.7612H19.8418V16.5076H21.3282V15.7612Z" fill="#CCCBCA"/>
<path d="M21.3287 13.656H19.8486V13.8729H21.3287V13.656Z" fill="#CCCBCA"/>
<path d="M21.3287 14.0835H19.8486V14.3004H21.3287V14.0835Z" fill="#CCCBCA"/>
<path d="M21.3287 13.2224H19.8486V13.4393H21.3287V13.2224Z" fill="#CCCBCA"/>
<path d="M21.3287 12.7949H19.8486V13.0118H21.3287V12.7949Z" fill="#CCCBCA"/>
<path d="M21.3287 12.3611H19.8486V12.578H21.3287V12.3611Z" fill="#CCCBCA"/>
<path d="M15.5176 10.0515C15.5176 9.96853 15.5495 9.87921 15.6133 9.81542C15.6771 9.75162 15.76 9.71973 15.8493 9.71973H18.5606C18.6435 9.71973 18.7328 9.75162 18.7966 9.81542C18.8604 9.87921 18.8923 9.96853 18.8923 10.0515V20.2012C18.8923 20.2841 18.8604 20.3734 18.7966 20.4372C18.7328 20.501 18.6435 20.5329 18.5606 20.5329H15.8493C15.7664 20.5329 15.6771 20.501 15.6133 20.4372C15.5495 20.3734 15.5176 20.2841 15.5176 20.2012V10.0515Z" fill="#EA6552"/>
<path d="M16.2275 18.7022C16.2275 19.2444 16.6677 19.6846 17.21 19.6846C17.7522 19.6846 18.1924 19.2444 18.1924 18.7022C18.1924 18.1599 17.7522 17.7197 17.21 17.7197C16.6677 17.7261 16.2275 18.1663 16.2275 18.7022Z" fill="white"/>
<path d="M16.4766 18.7021C16.4766 19.1104 16.8083 19.4358 17.2102 19.4358C17.6185 19.4358 17.9438 19.104 17.9438 18.7021C17.9438 18.2939 17.6121 17.9685 17.2102 17.9685C16.8019 17.9685 16.4766 18.3002 16.4766 18.7021Z" fill="#1E262E"/>
<path d="M18.3256 10.2876H16.0928V16.8776H18.3256V10.2876Z" fill="white"/>
<path d="M17.9493 10.6638H16.4629V12.1502H17.9493V10.6638Z" fill="#CCCBCA"/>
<path d="M17.9493 15.7612H16.4629V16.5076H17.9493V15.7612Z" fill="#CCCBCA"/>
<path d="M17.9498 13.6558H16.4697V13.8727H17.9498V13.6558Z" fill="#CCCBCA"/>
<path d="M17.9498 14.0833H16.4697V14.3002H17.9498V14.0833Z" fill="#CCCBCA"/>
<path d="M17.9498 13.2222H16.4697V13.4391H17.9498V13.2222Z" fill="#CCCBCA"/>
<path d="M17.9498 12.7947H16.4697V13.0116H17.9498V12.7947Z" fill="#CCCBCA"/>
<path d="M17.9498 12.3608H16.4697V12.5777H17.9498V12.3608Z" fill="#CCCBCA"/>
<path d="M12.3843 9.67496C12.4162 9.59841 12.48 9.52823 12.5693 9.49634C12.6523 9.46444 12.7479 9.46444 12.8245 9.49634L15.3189 10.5745C15.3954 10.6064 15.4592 10.6702 15.4975 10.7595C15.5294 10.8424 15.5294 10.9381 15.4911 11.0146L11.4721 20.3287C11.4402 20.4052 11.3764 20.4754 11.2871 20.5073C11.2041 20.5392 11.1084 20.5392 11.0319 20.5009L8.53751 19.4228C8.46095 19.3909 8.39078 19.3271 8.35888 19.2378C8.32699 19.1548 8.32699 19.0591 8.35888 18.9826L12.3843 9.67496Z" fill="#343B43"/>
<path d="M9.61032 17.898C9.3998 18.3956 9.62308 18.9698 10.1207 19.1867C10.6183 19.4036 11.1924 19.1739 11.4093 18.6763C11.6262 18.1787 11.3966 17.6046 10.899 17.3877C10.4014 17.1771 9.82722 17.4004 9.61032 17.898Z" fill="white"/>
<path d="M9.83393 18.0001C9.67445 18.3701 9.84669 18.8039 10.2167 18.9634C10.5867 19.1229 11.0205 18.9507 11.18 18.5807C11.3395 18.2107 11.1672 17.7768 10.7972 17.6174C10.4272 17.4515 9.9998 17.6237 9.83393 18.0001Z" fill="#1E262E"/>
<path d="M12.8203 10.1166L10.21 16.1675L12.2601 17.0519L14.8704 11.001L12.8203 10.1166Z" fill="white"/>
<path d="M13.0127 10.6037L12.4238 11.9685L13.7887 12.5574L14.3776 11.1926L13.0127 10.6037Z" fill="#CCCBCA"/>
<path d="M10.9843 15.2997L10.6914 15.9792L12.0564 16.5676L12.3493 15.888L10.9843 15.2997Z" fill="#CCCBCA"/>
<path d="M11.8364 13.356L13.1952 13.9429L13.1059 14.147L11.7471 13.5601L11.8364 13.356Z" fill="#CCCBCA"/>
<path d="M11.6645 13.7515L13.0233 14.3384L12.9404 14.5361L11.5752 13.9492L11.6645 13.7515Z" fill="#CCCBCA"/>
<path d="M11.9999 12.9649L11.9141 13.1641L13.2732 13.7499L13.359 13.5507L11.9999 12.9649Z" fill="#CCCBCA"/>
<path d="M12.1708 12.5667L12.085 12.7659L13.4441 13.3517L13.5299 13.1525L12.1708 12.5667Z" fill="#CCCBCA"/>
<path d="M12.3471 12.1758L13.7059 12.7627L13.6166 12.9605L12.2578 12.3735L12.3471 12.1758Z" fill="#CCCBCA"/>
</svg>
