<svg width="30" height="30" viewBox="0 0 30 30" fill="none" xmlns="http://www.w3.org/2000/svg">
<path d="M27 15C27 21.6284 21.6284 27 15 27C8.37161 27 3 21.6284 3 15C3 8.37161 8.37161 3 15 3C21.6284 3 27 8.37161 27 15Z" fill="#D17841"/>
<path d="M26.9486 16.1037L19.6822 8.83739C19.5929 8.74807 19.4844 8.7098 19.3696 8.7098H16.2628L15.6376 8.08459C15.6312 8.07821 15.6312 8.07822 15.6248 8.07184C15.5674 8.01442 15.4972 7.96338 15.427 7.9251C15.4015 7.91234 15.376 7.89959 15.3505 7.88683C15.3505 7.88683 15.3505 7.88683 15.3441 7.88683C15.3186 7.87407 15.2931 7.86769 15.2739 7.86131H15.2675C15.242 7.85493 15.2165 7.84855 15.1974 7.84217C15.191 7.84217 15.191 7.84217 15.1846 7.83579C15.1591 7.82941 15.1336 7.82942 15.1144 7.82304C15.1081 7.82304 15.1017 7.82304 15.0953 7.82304C15.0634 7.82304 15.0379 7.81665 15.006 7.81665C14.5148 7.81665 14.1192 8.21218 14.1192 8.70341H10.6423C10.5275 8.70341 10.4127 8.74808 10.3297 8.83101C10.2404 8.92033 10.2021 9.02877 10.2021 9.14361V14.8278V20.8374C10.2021 20.9522 10.2468 21.0671 10.3297 21.15L16.116 26.9363C21.8513 26.4195 26.4254 21.8517 26.9486 16.1037Z" fill="#BE5633"/>
<path d="M20.927 12.1484H20.4805V20.0719H20.927V12.1484Z" fill="#FD8369"/>
<path d="M21.3733 12.1484H20.9268V20.0719H21.3733V12.1484Z" fill="#EA6552"/>
<path d="M21.8206 12.1484H21.374V20.0719H21.8206V12.1484Z" fill="#E24F3B"/>
<path d="M21.826 12.1484L21.3731 11.3765H20.9265L20.4863 12.1484H21.826Z" fill="white"/>
<path d="M21.8262 12.1484H21.3733L21.2266 11.3765H21.3733L21.8262 12.1484Z" fill="#E6E5E5"/>
<path d="M21.3733 11.3765L21.15 10.9873L20.9268 11.3765H21.3733Z" fill="#343B43"/>
<path d="M21.8206 20.0718H21.374V20.5183H21.8206V20.0718Z" fill="#E6E5E5"/>
<path d="M21.3736 20.0718H20.4805V20.5183H21.3736V20.0718Z" fill="white"/>
<path d="M21.8199 20.6204V20.5183H21.3733V20.6204C21.3733 20.7926 21.3095 20.9649 21.1756 21.0925C21.099 21.1627 21.0161 21.2201 20.9268 21.252C20.9969 21.2775 21.0735 21.2902 21.15 21.2902C21.3223 21.2902 21.4945 21.2265 21.6221 21.0925C21.7561 20.9649 21.8199 20.7926 21.8199 20.6204Z" fill="#343B43"/>
<path d="M21.3736 20.6204V20.5183H20.4805V20.6204C20.4805 20.7926 20.5443 20.9649 20.6782 21.0925C20.7484 21.1627 20.8377 21.2201 20.927 21.252C21.0164 21.2201 21.1057 21.169 21.1758 21.0925C21.3098 20.9649 21.3736 20.7926 21.3736 20.6204Z" fill="#495057"/>
<path d="M10.6365 8.70972C10.5216 8.70972 10.4068 8.75437 10.3239 8.83731C10.2346 8.92662 10.1963 9.03508 10.1963 9.14991V20.8437C10.1963 20.9585 10.2409 21.0734 10.3239 21.1563C10.4132 21.2456 10.5216 21.2839 10.6365 21.2839H19.3701C19.485 21.2839 19.5998 21.2392 19.6827 21.1563C19.7721 21.067 19.8103 20.9585 19.8103 20.8437V9.14991C19.8103 9.03508 19.7657 8.92024 19.6827 8.83731C19.5934 8.74799 19.485 8.70972 19.3701 8.70972H10.6365V8.70972Z" fill="#343B43"/>
<path d="M18.7765 8.70972H11.2295V20.2568H18.7765V8.70972Z" fill="white"/>
<path d="M17.9864 15.9697H12.0215V16.4673H17.9864V15.9697Z" fill="#CCCBCA"/>
<path d="M17.9864 16.9651H12.0215V17.4627H17.9864V16.9651Z" fill="#CCCBCA"/>
<path d="M15.0071 17.9602H12.0215V18.4578H15.0071V17.9602Z" fill="#CCCBCA"/>
<path d="M16.6335 10.9873H13.3672V11.4849H16.6335V10.9873Z" fill="#343B43"/>
<path d="M12.3714 15.1787L12.0205 14.8278L13.5771 13.2648L14.2725 13.9602L15.6569 12.5758L16.3522 13.2648L17.558 12.0591L17.9152 12.41L16.3522 13.973L15.6569 13.2776L14.2725 14.662L13.5771 13.973L12.3714 15.1787Z" fill="#EA6552"/>
<path d="M17.9854 13.1754H17.4878V12.48H16.7988V11.9824H17.9854V13.1754Z" fill="#EA6552"/>
<path d="M15.8934 8.70976C15.8934 8.21853 15.4979 7.823 15.0067 7.823C14.5155 7.823 14.1199 8.21853 14.1199 8.70976H13.3799V9.74325H16.6335V8.70976H15.8934ZM14.6239 8.70976C14.6239 8.49923 14.7962 8.32698 15.0067 8.32698C15.2172 8.32698 15.3895 8.49923 15.3895 8.70976H14.6239Z" fill="#343B43"/>
</svg>
