<svg width="30" height="30" viewBox="0 0 30 30" fill="none" xmlns="http://www.w3.org/2000/svg">
<path d="M27 15C27 21.6284 21.6284 27 15 27C8.37161 27 3 21.6284 3 15C3 8.37161 8.37161 3 15 3C21.6284 3 27 8.37161 27 15Z" fill="#6DD678"/>
<path d="M19.9571 10.6746L19.3256 10.043C18.1709 9.03505 16.6589 8.42261 15.0002 8.42261C11.3702 8.42261 8.42285 11.3636 8.42285 15C8.42285 16.7033 9.06719 18.2535 10.1262 19.421C10.1262 19.421 10.1262 19.4274 10.1326 19.4274L10.5791 19.874C10.5791 19.874 10.5792 19.874 10.5855 19.8803L17.4563 26.7512C22.1134 25.7815 25.7753 22.1196 26.7514 17.4689L19.9571 10.6746Z" fill="#0DA71C"/>
<path d="M15.0002 8.42261C11.3638 8.42261 8.42285 11.3636 8.42285 15C8.42285 18.6363 11.3702 21.5773 15.0002 21.5773C18.6366 21.5773 21.5839 18.6363 21.5839 15C21.5776 11.3636 18.6366 8.42261 15.0002 8.42261Z" fill="#343B43"/>
<path d="M20.4609 15C20.4609 18.0175 18.0175 20.4609 15 20.4609C11.9824 20.4609 9.53906 18.0175 9.53906 15C9.53906 11.9824 11.9824 9.53906 15 9.53906C18.0112 9.53906 20.4609 11.9888 20.4609 15Z" fill="white"/>
<path d="M15 9.53906V15H20.4609C20.4609 11.9888 18.0112 9.53906 15 9.53906Z" fill="#EA6552"/>
<path d="M15.3063 11.8484H14.6875V14.3237H15.3063V11.8484Z" fill="#343B43"/>
<path d="M18.152 14.6936H15.6768V15.3124H18.152V14.6936Z" fill="#343B43"/>
<path d="M16.1423 14.9999C16.1423 15.6314 15.6319 16.1418 15.0003 16.1418C14.3688 16.1418 13.8584 15.6314 13.8584 14.9999C13.8584 14.3683 14.3688 13.8579 15.0003 13.8579C15.6319 13.8579 16.1423 14.3683 16.1423 14.9999Z" fill="#343B43"/>
<path d="M15.5228 14.9999C15.5228 15.2934 15.2868 15.5231 14.9997 15.5231C14.7062 15.5231 14.4766 15.287 14.4766 14.9999C14.4766 14.7065 14.7126 14.4768 14.9997 14.4768C15.2868 14.4768 15.5228 14.7129 15.5228 14.9999Z" fill="white"/>
<path d="M15.3063 14.9998C15.3063 15.1721 15.166 15.306 15.0001 15.306C14.8279 15.306 14.6875 15.1657 14.6875 14.9998C14.6875 14.834 14.8279 14.6936 15.0001 14.6936C15.166 14.6936 15.3063 14.8276 15.3063 14.9998Z" fill="#EA6552"/>
<path d="M14.9991 10.6683C14.8269 10.6683 14.6865 10.528 14.6865 10.3621C14.6865 10.1899 14.8269 10.0559 14.9991 10.0559C15.1714 10.0559 15.3053 10.1963 15.3053 10.3621C15.3053 10.528 15.165 10.6683 14.9991 10.6683Z" fill="#343B43"/>
<path d="M12.8309 11.2489C12.6842 11.3319 12.4928 11.2808 12.4098 11.1341C12.3269 10.9874 12.3779 10.796 12.5247 10.7131C12.6714 10.6301 12.8628 10.6812 12.9457 10.8279C13.0287 10.9746 12.9776 11.166 12.8309 11.2489Z" fill="#343B43"/>
<path d="M11.2485 12.8372C11.1655 12.984 10.9741 13.035 10.8274 12.9521C10.6807 12.8691 10.6296 12.6778 10.7126 12.531C10.7955 12.3843 10.9869 12.3333 11.1336 12.4162C11.2804 12.4991 11.3314 12.6905 11.2485 12.8372Z" fill="#343B43"/>
<path d="M10.6681 15.0001C10.6681 15.1723 10.5341 15.3063 10.3619 15.3063C10.1896 15.3063 10.0557 15.1659 10.0557 15.0001C10.0557 14.8342 10.196 14.6938 10.3619 14.6938C10.5278 14.6938 10.6681 14.8342 10.6681 15.0001Z" fill="#343B43"/>
<path d="M11.2485 17.1692C11.3314 17.3159 11.2867 17.5073 11.1336 17.5903C10.9869 17.6732 10.7955 17.6222 10.7126 17.4754C10.6296 17.3287 10.6807 17.1373 10.8274 17.0544C10.9741 16.9714 11.1591 17.0225 11.2485 17.1692Z" fill="#343B43"/>
<path d="M12.8309 18.7511C12.9776 18.8341 13.0287 19.0255 12.9457 19.1722C12.8628 19.3189 12.6714 19.37 12.5247 19.287C12.3779 19.2041 12.3269 19.0127 12.4098 18.866C12.4928 18.7193 12.6842 18.6682 12.8309 18.7511Z" fill="#343B43"/>
<path d="M14.9991 19.3318C15.1714 19.3318 15.3053 19.4658 15.3053 19.638C15.3053 19.8103 15.165 19.9442 14.9991 19.9506C14.8269 19.9506 14.6865 19.8103 14.6865 19.638C14.6865 19.4721 14.8269 19.3318 14.9991 19.3318Z" fill="#343B43"/>
<path d="M17.1624 18.7513C17.3091 18.6684 17.5005 18.713 17.5835 18.8662C17.6664 19.0129 17.6153 19.2043 17.475 19.2872C17.3283 19.3701 17.1369 19.3191 17.054 19.1724C16.9646 19.0256 17.0157 18.8406 17.1624 18.7513Z" fill="#343B43"/>
<path d="M18.7506 17.1692C18.8335 17.0225 19.0249 16.9714 19.1716 17.0544C19.3183 17.1373 19.3694 17.3287 19.2865 17.4754C19.2035 17.6222 19.0121 17.6732 18.8654 17.5903C18.7187 17.5009 18.6612 17.3159 18.7506 17.1692Z" fill="#343B43"/>
<path d="M19.3311 15C19.3311 14.8278 19.4714 14.6874 19.6437 14.6938C19.8159 14.6938 19.9499 14.8342 19.9499 15C19.9499 15.1659 19.8095 15.3063 19.6437 15.3063C19.465 15.3126 19.3311 15.1723 19.3311 15Z" fill="#343B43"/>
<path d="M18.7507 12.8372C18.6677 12.6905 18.7188 12.4991 18.8655 12.4162C19.0122 12.3333 19.2036 12.3843 19.2866 12.531C19.3695 12.6778 19.3184 12.8691 19.1717 12.9521C19.025 13.035 18.8336 12.984 18.7507 12.8372Z" fill="#343B43"/>
<path d="M17.1624 11.2489C17.0156 11.166 16.9646 10.9746 17.0475 10.8279C17.1368 10.6812 17.3219 10.6301 17.4686 10.7131C17.6153 10.796 17.6664 10.9874 17.5834 11.1341C17.5005 11.2808 17.3091 11.3319 17.1624 11.2489Z" fill="#343B43"/>
</svg>
